<svg width="172" height="23" viewBox="0 0 172 23" fill="none" xmlns="http://www.w3.org/2000/svg">
<g clip-path="url(#clip0_0_147)">
<path d="M44.5334 6.832L41.4134 18H38.7734L36.6774 10.048L34.4854 18L31.8614 18.016L28.8534 6.832H31.2534L33.2214 15.504L35.4934 6.832H37.9894L40.1334 15.456L42.1174 6.832H44.5334ZM45.42 13.536C45.42 12.64 45.596 11.8453 45.948 11.152C46.3107 10.4587 46.796 9.92533 47.404 9.552C48.0227 9.17867 48.7107 8.992 49.468 8.992C50.1294 8.992 50.7054 9.12533 51.196 9.392C51.6974 9.65867 52.0974 9.99467 52.396 10.4V9.136H54.652V18H52.396V16.704C52.108 17.12 51.708 17.4667 51.196 17.744C50.6947 18.0107 50.1134 18.144 49.452 18.144C48.7054 18.144 48.0227 17.952 47.404 17.568C46.796 17.184 46.3107 16.6453 45.948 15.952C45.596 15.248 45.42 14.4427 45.42 13.536ZM52.396 13.568C52.396 13.024 52.2894 12.56 52.076 12.176C51.8627 11.7813 51.5747 11.4827 51.212 11.28C50.8494 11.0667 50.46 10.96 50.044 10.96C49.628 10.96 49.244 11.0613 48.892 11.264C48.54 11.4667 48.252 11.7653 48.028 12.16C47.8147 12.544 47.708 13.0027 47.708 13.536C47.708 14.0693 47.8147 14.5387 48.028 14.944C48.252 15.3387 48.54 15.6427 48.892 15.856C49.2547 16.0693 49.6387 16.176 50.044 16.176C50.46 16.176 50.8494 16.0747 51.212 15.872C51.5747 15.6587 51.8627 15.36 52.076 14.976C52.2894 14.5813 52.396 14.112 52.396 13.568ZM59.4478 10.976V15.264C59.4478 15.5627 59.5171 15.7813 59.6558 15.92C59.8051 16.048 60.0504 16.112 60.3918 16.112H61.4318V18H60.0238C58.1358 18 57.1918 17.0827 57.1918 15.248V10.976H56.1358V9.136H57.1918V6.944H59.4478V9.136H61.4318V10.976H59.4478ZM62.4669 13.568C62.4669 12.6507 62.6536 11.8507 63.0269 11.168C63.4002 10.4747 63.9176 9.94133 64.5789 9.568C65.2402 9.184 65.9976 8.992 66.8509 8.992C67.9496 8.992 68.8562 9.26933 69.5709 9.824C70.2962 10.368 70.7816 11.136 71.0269 12.128H68.6109C68.4829 11.744 68.2642 11.4453 67.9549 11.232C67.6562 11.008 67.2829 10.896 66.8349 10.896C66.1949 10.896 65.6882 11.1307 65.3149 11.6C64.9416 12.0587 64.7549 12.7147 64.7549 13.568C64.7549 14.4107 64.9416 15.0667 65.3149 15.536C65.6882 15.9947 66.1949 16.224 66.8349 16.224C67.7416 16.224 68.3336 15.8187 68.6109 15.008H71.0269C70.7816 15.968 70.2962 16.7307 69.5709 17.296C68.8456 17.8613 67.9389 18.144 66.8509 18.144C65.9976 18.144 65.2402 17.9573 64.5789 17.584C63.9176 17.2 63.4002 16.6667 63.0269 15.984C62.6536 15.2907 62.4669 14.4853 62.4669 13.568ZM77.6599 9.008C78.3319 9.008 78.9292 9.15733 79.4519 9.456C79.9746 9.744 80.3799 10.176 80.6679 10.752C80.9666 11.3173 81.1159 12 81.1159 12.8V18H78.8759V13.104C78.8759 12.4 78.6999 11.8613 78.3479 11.488C77.9959 11.104 77.5159 10.912 76.9079 10.912C76.2892 10.912 75.7986 11.104 75.4359 11.488C75.0839 11.8613 74.9079 12.4 74.9079 13.104V18H72.6679V6.16H74.9079V10.24C75.1959 9.856 75.5799 9.55733 76.0599 9.344C76.5399 9.12 77.0732 9.008 77.6599 9.008ZM89.6665 10.976V15.264C89.6665 15.5627 89.7359 15.7813 89.8745 15.92C90.0239 16.048 90.2692 16.112 90.6105 16.112H91.6505V18H90.2425C88.3545 18 87.4105 17.0827 87.4105 15.248V10.976H86.3545V9.136H87.4105V6.944H89.6665V9.136H91.6505V10.976H89.6665ZM98.2537 9.008C98.9257 9.008 99.523 9.15733 100.046 9.456C100.568 9.744 100.974 10.176 101.262 10.752C101.56 11.3173 101.71 12 101.71 12.8V18H99.4697V13.104C99.4697 12.4 99.2937 11.8613 98.9417 11.488C98.5897 11.104 98.1097 10.912 97.5017 10.912C96.883 10.912 96.3923 11.104 96.0297 11.488C95.6777 11.8613 95.5017 12.4 95.5017 13.104V18H93.2617V6.16H95.5017V10.24C95.7897 9.856 96.1737 9.55733 96.6537 9.344C97.1337 9.12 97.667 9.008 98.2537 9.008ZM112.08 13.376C112.08 13.696 112.058 13.984 112.016 14.24H105.536C105.589 14.88 105.813 15.3813 106.208 15.744C106.602 16.1067 107.088 16.288 107.664 16.288C108.496 16.288 109.088 15.9307 109.44 15.216H111.856C111.6 16.0693 111.109 16.7733 110.384 17.328C109.658 17.872 108.768 18.144 107.712 18.144C106.858 18.144 106.09 17.9573 105.408 17.584C104.736 17.2 104.208 16.6613 103.824 15.968C103.45 15.2747 103.264 14.4747 103.264 13.568C103.264 12.6507 103.45 11.8453 103.824 11.152C104.197 10.4587 104.72 9.92533 105.392 9.552C106.064 9.17867 106.837 8.992 107.712 8.992C108.554 8.992 109.306 9.17333 109.968 9.536C110.64 9.89867 111.157 10.416 111.52 11.088C111.893 11.7493 112.08 12.512 112.08 13.376ZM109.76 12.736C109.749 12.16 109.541 11.7013 109.136 11.36C108.73 11.008 108.234 10.832 107.648 10.832C107.093 10.832 106.624 11.0027 106.24 11.344C105.866 11.6747 105.637 12.1387 105.552 12.736H109.76ZM127.559 6.832L123.463 18H120.743L116.647 6.832H119.047L122.119 15.712L125.175 6.832H127.559ZM130.038 8.08C129.644 8.08 129.313 7.95733 129.046 7.712C128.79 7.456 128.662 7.14133 128.662 6.768C128.662 6.39467 128.79 6.08533 129.046 5.84C129.313 5.584 129.644 5.456 130.038 5.456C130.433 5.456 130.758 5.584 131.014 5.84C131.281 6.08533 131.414 6.39467 131.414 6.768C131.414 7.14133 131.281 7.456 131.014 7.712C130.758 7.95733 130.433 8.08 130.038 8.08ZM131.142 9.136V18H128.902V9.136H131.142ZM132.779 13.536C132.779 12.64 132.955 11.8453 133.307 11.152C133.67 10.4587 134.161 9.92533 134.779 9.552C135.398 9.17867 136.086 8.992 136.843 8.992C137.419 8.992 137.969 9.12 138.491 9.376C139.014 9.62133 139.43 9.952 139.739 10.368V6.16H142.011V18H139.739V16.688C139.462 17.1253 139.073 17.4773 138.571 17.744C138.07 18.0107 137.489 18.144 136.827 18.144C136.081 18.144 135.398 17.952 134.779 17.568C134.161 17.184 133.67 16.6453 133.307 15.952C132.955 15.248 132.779 14.4427 132.779 13.536ZM139.755 13.568C139.755 13.024 139.649 12.56 139.435 12.176C139.222 11.7813 138.934 11.4827 138.571 11.28C138.209 11.0667 137.819 10.96 137.403 10.96C136.987 10.96 136.603 11.0613 136.251 11.264C135.899 11.4667 135.611 11.7653 135.387 12.16C135.174 12.544 135.067 13.0027 135.067 13.536C135.067 14.0693 135.174 14.5387 135.387 14.944C135.611 15.3387 135.899 15.6427 136.251 15.856C136.614 16.0693 136.998 16.176 137.403 16.176C137.819 16.176 138.209 16.0747 138.571 15.872C138.934 15.6587 139.222 15.36 139.435 14.976C139.649 14.5813 139.755 14.112 139.755 13.568ZM152.439 13.376C152.439 13.696 152.418 13.984 152.375 14.24H145.895C145.948 14.88 146.172 15.3813 146.567 15.744C146.962 16.1067 147.447 16.288 148.023 16.288C148.855 16.288 149.447 15.9307 149.799 15.216H152.215C151.959 16.0693 151.468 16.7733 150.743 17.328C150.018 17.872 149.127 18.144 148.071 18.144C147.218 18.144 146.45 17.9573 145.767 17.584C145.095 17.2 144.567 16.6613 144.183 15.968C143.81 15.2747 143.623 14.4747 143.623 13.568C143.623 12.6507 143.81 11.8453 144.183 11.152C144.556 10.4587 145.079 9.92533 145.751 9.552C146.423 9.17867 147.196 8.992 148.071 8.992C148.914 8.992 149.666 9.17333 150.327 9.536C150.999 9.89867 151.516 10.416 151.879 11.088C152.252 11.7493 152.439 12.512 152.439 13.376ZM150.119 12.736C150.108 12.16 149.9 11.7013 149.495 11.36C149.09 11.008 148.594 10.832 148.007 10.832C147.452 10.832 146.983 11.0027 146.599 11.344C146.226 11.6747 145.996 12.1387 145.911 12.736H150.119ZM158.01 18.144C157.157 18.144 156.389 17.9573 155.706 17.584C155.023 17.2 154.485 16.6613 154.09 15.968C153.706 15.2747 153.514 14.4747 153.514 13.568C153.514 12.6613 153.711 11.8613 154.106 11.168C154.511 10.4747 155.061 9.94133 155.754 9.568C156.447 9.184 157.221 8.992 158.074 8.992C158.927 8.992 159.701 9.184 160.394 9.568C161.087 9.94133 161.631 10.4747 162.026 11.168C162.431 11.8613 162.634 12.6613 162.634 13.568C162.634 14.4747 162.426 15.2747 162.01 15.968C161.605 16.6613 161.05 17.2 160.346 17.584C159.653 17.9573 158.874 18.144 158.01 18.144ZM158.01 16.192C158.415 16.192 158.794 16.096 159.146 15.904C159.509 15.7013 159.797 15.4027 160.01 15.008C160.223 14.6133 160.33 14.1333 160.33 13.568C160.33 12.7253 160.106 12.08 159.658 11.632C159.221 11.1733 158.682 10.944 158.042 10.944C157.402 10.944 156.863 11.1733 156.426 11.632C155.999 12.08 155.786 12.7253 155.786 13.568C155.786 14.4107 155.994 15.0613 156.41 15.52C156.837 15.968 157.37 16.192 158.01 16.192Z" fill="#FF9900"/>
<path d="M28.5014 19.6H163.178V20.4H28.5014V19.6Z" fill="#FF9900"/>
<path fill-rule="evenodd" clip-rule="evenodd" d="M17.6894 10.5157C18.463 10.9439 18.463 12.0561 17.6894 12.4843L3.07037 20.5758C2.32055 20.9908 1.40057 20.4485 1.40057 19.5915V3.4085C1.40057 2.55149 2.32055 2.0092 3.07037 2.42421L17.6894 10.5157Z" fill="#FF9900"/>
</g>
<defs>
<clipPath id="clip0_0_147">
<rect width="171.107" height="23" fill="white" transform="translate(0.869202)"/>
</clipPath>
</defs>
</svg>
